<?xml version="1.0" encoding="UTF-8"?>
<svg id="Layer_1" data-name="Layer 1" xmlns="http://www.w3.org/2000/svg" viewBox="0 0 1200 660">
  <defs>
    <style>
      .cls-1 {
        fill: #fff;
      }
    </style>
  </defs>
  <g>
    <path class="cls-1" d="M100,262.08896c0-99.99787,67.58477-168.27228,159.30695-168.27228,53.79196,0,95.86003,24.82706,112.4114,48.96447v-42.06807h44.13699v319.99318h-44.13699v-52.41268c-19.99957,33.10274-58.61944,59.30908-116.54924,59.30908-92.41182,0-155.16911-75.17081-155.16911-165.51372ZM377.23547,260.70968c0-56.55052-39.30951-122.75601-117.23888-122.75601-78.61901,0-113.10104,64.82621-113.10104,122.75601,0,51.72304,31.72346,122.75601,113.79068,122.75601,79.9983,0,116.54924-67.58477,116.54924-122.75601Z"/>
    <path class="cls-1" d="M445.98468,337.25977V100.71308h44.13699v221.37459c0,50.34376,19.99957,62.75728,48.96447,62.75728,31.72346,0,57.24016-17.93065,57.24016-75.86045V100.71308h44.13766v319.99318h-44.13766v-22.75814c-14.48245,19.30993-36.55095,29.65454-67.58477,29.65454-31.72346,0-82.75686-16.55137-82.75686-90.3429Z"/>
    <path class="cls-1" d="M784.14466,262.08896c0-99.99787,67.58477-168.27228,159.30695-168.27228,53.79196,0,95.86003,24.82706,112.4114,48.96447v-42.06807h44.13699v319.99318h-44.13699v-52.41268c-19.99957,33.10274-58.61944,59.30908-116.54924,59.30908-92.41182,0-155.16911-75.17081-155.16911-165.51372ZM1061.38013,260.70968c0-56.55052-39.30951-122.75601-117.23888-122.75601-78.61901,0-113.10104,64.82621-113.10104,122.75601,0,51.72304,31.72346,122.75601,113.79068,122.75601,79.9983,0,116.54924-67.58477,116.54924-122.75601Z"/>
    <path class="cls-1" d="M790.51145,98.49601c-2.76795-.18533-5.47888-.30295-8.03343-.30295-31.03374,0-53.10206,17.79726-67.58468,37.10742v-34.59118h-44.13752v319.99342h44.13752v-194.24957c0-42.67298,19.90117-80.14062,65.03798-81.85225,3.11984-.11831,4.71071-.25868,10.58013.36354v-46.46842Z"/>
  </g>
  <g>
    <path class="cls-1" d="M178.59411,489.5274v63.6192h23.05274v9.72985h-33.46304v-73.34905h10.4103Z"/>
    <path class="cls-1" d="M277.25983,562.87645h-10.99536l-7.87927-17.50736h-32.00674l-7.87927,17.50736h-10.89361l34.82394-77.24098,34.8303,77.24098ZM242.42952,509.66754h-.19078l-11.57406,25.97169h23.44066l-11.67581-25.97169Z"/>
    <path class="cls-1" d="M299.15134,529.70594l-3.21148,3.30688v29.86363h-10.4103v-73.34905h10.4103v30.06077l28.89065-30.06077h13.23386l-32.00674,33.07512,33.46304,40.27393h-12.94133l-27.42799-33.17051Z"/>
    <path class="cls-1" d="M388.46242,489.5274v9.72985h-29.47571v20.13379h28.98604v9.72985h-28.98604v24.02572h29.47571v9.72985h-39.88601v-73.34905h39.88601Z"/>
    <path class="cls-1" d="M406.02066,489.5274l21.20852,50.68423h.19078l21.20852-50.68423h10.79822l-32.19752,76.65592-32.20388-76.65592h10.99536Z"/>
    <path class="cls-1" d="M477.95793,489.5274v73.34905h-10.4103v-73.34905h10.4103Z"/>
    <path class="cls-1" d="M535.06512,489.5274v9.72985h-29.47571v20.13379h28.98604v9.72985h-28.98604v24.02572h29.47571v9.72985h-39.88601v-73.34905h39.88601Z"/>
    <path class="cls-1" d="M552.52797,489.5274l19.35794,49.61585h.19714l20.71885-53.50779,20.8206,53.50779h.19078l19.26255-49.61585h10.60108l-29.86363,76.65592-21.01138-53.79396h-.19078l-21.01138,53.79396-29.96538-76.65592h10.89361Z"/>
    <path class="cls-1" d="M678.42963,489.5274l21.20852,50.68423h.19078l21.20852-50.68423h10.79822l-32.19752,76.65592-32.20388-76.65592h10.99536Z"/>
    <path class="cls-1" d="M750.36689,489.5274v73.34905h-10.4103v-73.34905h10.4103Z"/>
    <path class="cls-1" d="M777.99838,489.5274v63.6192h23.05274v9.72985h-33.46304v-73.34905h10.4103Z"/>
    <path class="cls-1" d="M821.8272,489.5274v63.6192h23.05274v9.72985h-33.46304v-73.34905h10.4103Z"/>
    <path class="cls-1" d="M920.48657,562.87645h-10.99536l-7.87927-17.50736h-32.00674l-7.87927,17.50736h-10.89361l34.82394-77.24098,34.8303,77.24098ZM885.65626,509.66754h-.19078l-11.57406,25.97169h23.44066l-11.67581-25.97169Z"/>
    <path class="cls-1" d="M994.26169,529.41341c0,19.1608-15.26886,34.63316-35.02108,34.63316-21.49469,0-37.93368-16.83327-37.93368-37.84465s16.24185-37.83829,37.45037-37.83829c13.42464,0,24.80793,6.80453,31.32629,17.11944l-8.1718,5.44363c-4.86492-7.77752-13.23386-12.73783-23.15449-12.73783-15.07808,0-26.65215,12.15913-26.65215,28.01305s11.57406,28.01941,26.74754,28.01941c12.74419,0,22.66482-8.1718,24.71254-19.45969h-19.65047v-9.04303h30.15616c.19078,1.36091.19078,2.42928.19078,3.6948Z"/>
    <path class="cls-1" d="M1046.5612,489.5274v9.72985h-29.47571v20.13379h28.98604v9.72985h-28.98604v24.02572h29.47571v9.72985h-39.88601v-73.34905h39.88601Z"/>
  </g>
</svg>