<svg id="Layer_1" data-name="Layer 1" xmlns="http://www.w3.org/2000/svg" viewBox="0 0 906.61831 165.95264"><title>Caivan-Logo-RichBlack-RGB</title><path d="M217.63113,205.39254H231.2338L250.13655,160.277h64.00993L333.934,205.39254h27.20535L287.23148,44.20084ZM254.506,149.84828,281.40962,85.637l28.16287,64.21131ZM186.7984,161.864l2.94724,4.30751c-15.18965,27.20536-38.54091,42.395-65.973,42.395-44.2087,0-77.08183-35.82038-77.08183-82.5229,0-44.66211,29.92589-81.16263,78.66881-81.16263,26.52521,0,45.34225,13.82939,57.58466,29.69918L176.143,87.04927c-12.92254-23.12455-29.24575-31.73958-47.60936-31.73958-29.69918,0-52.597,31.96629-52.597,70.73391s23.35126,68.24009,55.771,68.24009C154.37869,194.28369,170.47519,184.76182,186.7984,161.864ZM621.63059,46.69466h13.376L562.68567,210.15348,505.32772,74.12673c-8.38831-19.72388-12.24241-22.67113-27.43206-24.0314l-2.49382-.22671v-3.174H490.8182c21.31086,0,30.83273,4.76094,37.18065,20.17731l41.26183,99.46272ZM953.30916,207.88637,846.30145,93.63112V205.39254H832.69877V92.71705c0-33.32656-4.53422-41.26145-21.31086-42.84843l-2.49382-.22671V46.69466h4.0808c14.28281,0,24.25811,4.30752,32.64642,13.376l94.992,101.88487V46.69466h12.69583Zm-309.91429-2.49383h13.82939L676.216,160.277h63.75374l19.728,45.11554H786.9031L712.99523,44.20084Zm37.21126-55.54426,26.88072-63.856,27.92274,63.856ZM388.57141,46.69466h46.70252V205.39254H410.78912V72.08633c0-15.41637-3.174-19.9506-16.54993-21.53757l-5.66778-.68014Z" transform="translate(-46.69084 -44.20084)"/></svg>